
<svg width="180px" height="46px" viewBox="0 0 180 46" version="1.1" xmlns="http://www.w3.org/2000/svg" xmlns:xlink="http://www.w3.org/1999/xlink">
    <defs>
        <polygon id="path-1" points="1.7916802e-16 0.244724228 25.9531857 0.244724228 25.9531857 27.9309398 0 27.9309398"></polygon>
    </defs>
    <g id="Landing-page" stroke="none" stroke-width="1" fill="none" fill-rule="evenodd">
        <g id="Fixed-header" transform="translate(-38.000000, -12.000000)">
            <g id="Header">
                <g id="Logo-positiu" transform="translate(38.000000, 12.000000)">
                    <g id="Logo_Positivo_Logo">
                        <path d="M180,30.4808093 C180,32.8183315 179.407485,35.0259374 178.354337,36.9804977 C178.240613,37.1908844 178.121154,37.399332 177.996917,37.6048711 C177.078519,36.7022443 175.693754,35.5620842 174.139836,35.0375717 C172.864973,34.6071031 171.47543,34.5906212 170.136537,35.4602842 C169.892842,35.6183166 169.650102,35.8064042 169.410229,36.0264861 C168.919015,36.4773147 168.431623,36.8690024 167.950922,37.2025186 C166.26321,38.3737035 164.686356,38.8080503 163.517572,38.4328445 C162.565725,38.1274445 162.903077,37.0425472 163.733553,36.4782843 C164.109131,36.2213604 164.453172,35.939229 164.768543,35.6347985 C169.197115,31.3688932 167.814261,22.8816808 167.740675,22.4492731 C167.739719,22.443456 167.739719,22.4395779 167.738763,22.4366693 C167.737808,22.4356998 167.737808,22.4337608 167.737808,22.4327912 C167.118534,19.2508137 166.047228,17.1973621 164.496177,17.1973621 C161.821259,17.1973621 160.611382,23.1289094 160.611382,30.446876 C160.611382,30.5729141 160.612337,30.6989522 160.613293,30.8240208 L160.613293,30.8288684 C160.689746,33.5580782 161.611967,34.8494841 163.195511,35.3643013 C162.85816,35.7637451 162.445311,36.1961528 161.964609,36.5946271 C161.422745,37.0444862 161.221099,37.7357568 161.448548,38.3688559 L161.448548,38.3688559 C161.684598,39.0271627 162.383193,39.6243894 163.645632,39.8221723 C164.345182,39.9317285 165.335255,39.7930866 166.02047,39.6098465 C166.088322,39.5904561 166.161909,39.568157 166.238362,39.5410103 C166.640699,39.3975208 167.065017,39.3296541 167.489333,39.3529227 C167.508447,39.3538922 167.525649,39.3548617 167.544762,39.3558313 C167.555275,39.3568008 167.564831,39.3568008 167.575344,39.3577703 C167.638418,39.3713436 167.702448,39.3761913 167.765522,39.3694046 C171.429558,39.6282675 173.344719,40.9613629 174.155127,41.7243782 C174.156082,41.7253477 174.157994,41.7272868 174.158949,41.7272868 C174.17424,41.7427992 174.189531,41.757342 174.204822,41.7718849 L174.205777,41.7718849 C174.208644,41.775763 174.212467,41.7796411 174.216289,41.7844887 C174.569887,42.1538773 174.638695,42.7346221 174.350083,43.1844812 C174.015599,43.7070546 173.329428,43.8544223 172.812411,43.5179975 C172.812411,43.5170279 172.811456,43.5170279 172.8105,43.5160584 C172.793298,43.5044241 172.776096,43.4918203 172.758894,43.4811555 C172.576361,43.3541479 172.366114,43.2232622 172.124329,43.0904374 C171.016709,42.484485 169.26879,41.8785325 166.692305,41.8523554 C166.653123,41.8513858 166.61394,41.8513858 166.573802,41.8513858 L166.525063,41.8513858 C166.410383,41.8581725 166.300481,41.918283 166.233584,42.0239611 C166.128461,42.1868411 166.162865,42.4011059 166.308126,42.5232659 C166.300481,42.5339307 166.293791,42.5445954 166.286146,42.5542907 C166.318639,42.5601078 166.350176,42.565925 166.380757,42.5717421 C166.442876,42.6037364 166.511684,42.6163402 166.577625,42.6105231 C168.082804,42.9207707 169.066188,43.4627346 169.61952,43.8553918 C169.620476,43.8553918 169.621432,43.8563613 169.621432,43.8563613 C169.647235,43.8747823 169.672082,43.8932032 169.695974,43.9106546 C169.697885,43.9125937 169.699797,43.9125937 169.700752,43.9145327 C169.760003,43.9610699 169.813521,44.0134242 169.86226,44.0706261 C170.148005,44.4099595 170.229237,44.9015081 170.029502,45.3310072 C169.772427,45.8836358 169.144553,46.135712 168.590264,45.9272644 C168.519545,45.891392 168.446914,45.8526111 168.369505,45.8157691 C167.52756,45.4095386 166.208736,44.9868262 164.337536,44.9606491 L164.326068,44.9606491 C164.309822,44.9606491 164.293575,44.9596795 164.277329,44.9596795 C155.8187,44.8481843 149,38.4086064 149,30.4808093 C149,22.4832065 155.938159,16 164.499044,16 C173.05993,16 180,22.4832065 180,30.4808093" id="Fill-1" fill="#F9C200" fill-rule="nonzero"></path>
                        <path d="M176.812923,40.4404966 C176.467279,41.0018123 175.764209,41.1670886 175.230033,40.8157465 L175.229051,40.8147071 C175.202539,40.7928781 175.143622,40.7440228 175.053284,40.6733386 L175.052302,40.6733386 C175.047392,40.6691807 175.042483,40.6639834 175.038555,40.6598255 C175.037573,40.660865 175.037573,40.660865 175.036591,40.6619045 C174.55544,40.2897729 173.253386,39.3739967 171.365112,38.7087336 C170.274176,38.3251678 169.140034,38.1287073 168,38.1068783 C168.7286,37.6068916 169.488623,37.0497337 170.204458,36.510247 C170.207404,36.5071285 170.211331,36.5040101 170.216241,36.5008917 C170.94386,35.9530891 171.890451,35.8491417 172.7143,36.2160759 C172.837042,36.2701286 172.958803,36.3272996 173.080564,36.3875891 C174.964909,37.3116811 176.18448,38.4332731 176.573329,38.8178783 L176.573329,38.8189178 C176.578239,38.8241151 176.58413,38.828273 176.588058,38.8334704 C176.588058,38.8334704 176.588058,38.8334704 176.58904,38.8345099 C176.653848,38.8979178 176.692144,38.9394967 176.703927,38.9519704 C176.706873,38.9540493 176.707855,38.9561283 176.707855,38.9561283 C177.045643,39.3584046 177.103577,39.9664966 176.812923,40.4404966" id="Fill-3" fill="#F9C200" fill-rule="nonzero"></path>
                        <g id="Group-7" transform="translate(0.000000, 16.000000)">
                            <g id="Fill-5-Clipped">
                                <mask id="mask-2" fill="white">
                                    <use xlink:href="#path-1"></use>
                                </mask>
                                <g id="path-1"></g>
                                <path d="M25.9531857,16.669751 C25.9531857,16.6789754 25.9531857,16.6872774 25.9522688,16.6955794 C25.9394318,16.7656851 25.9275118,16.8348684 25.9137579,16.9031292 C24.6841575,23.1988052 19.4099882,27.9309398 13.0932719,27.9309398 C5.86237851,27.9309398 -0.00045846395,21.7330427 -0.00045846395,14.087832 C-0.00045846395,6.44354371 5.86237851,0.244724228 13.0932719,0.244724228 C13.8387343,0.244724228 14.5704428,0.311140151 15.2819788,0.437514894 C17.4009992,0.814794234 19.3476372,1.72985806 20.9907719,3.04618477 C21.2429271,3.24819986 21.4886638,3.46128428 21.727982,3.68082581 C21.7298158,3.68174825 21.7307328,3.68451558 21.7316497,3.68543803 C22.5523002,4.55345724 23.0566105,5.72772765 23.0566105,7.02007083 C23.0566105,9.69238931 20.9027468,11.8582864 18.2464067,11.8582864 C15.5900666,11.8582864 13.4371199,9.69238931 13.4371199,7.02007083 C13.4371199,5.59397336 14.0505447,4.31177708 15.0261559,3.42530899 C15.1251842,3.36535017 15.2141262,3.29063226 15.2883973,3.20392258 C15.4690321,2.99914015 15.5799804,2.7279418 15.5799804,2.43275992 C15.5799804,1.78981688 15.0609992,1.26771393 14.4219005,1.26771393 C14.1963362,1.26771393 13.9854428,1.33228497 13.8075588,1.44666795 C13.7993064,1.44943528 13.7928879,1.45404749 13.7864694,1.45773727 C13.7305368,1.49647989 13.6755212,1.53891229 13.6278409,1.58687934 C13.6159209,1.59794866 13.6030839,1.60809554 13.5929976,1.62193219 C13.5920807,1.62285463 13.5893299,1.62469952 13.5874961,1.62746685 C13.5829114,1.63023418 13.5783268,1.6348464 13.575576,1.63853617 C13.4068613,1.78059245 13.2399804,1.93187316 13.0730995,2.09145587 C8.74519984,6.25259795 9.52000391,12.1931333 9.60527823,12.7761175 C9.84643027,14.4125321 10.3681622,17.9593269 13.4343691,19.8263522 C16.6995494,21.8151401 20.3113284,20.3493776 20.5158033,20.2626679 C22.223123,19.5376274 23.6342751,18.1475053 24.589714,16.3385938 C24.5933817,16.3293694 24.5970494,16.3210674 24.602551,16.3136878 C24.7263362,16.0923014 24.9610697,15.943788 25.2315635,15.943788 C25.6295102,15.943788 25.9531857,16.2684881 25.9531857,16.669751" id="Fill-5" fill="#ffffff" fill-rule="nonzero" mask="url(#mask-2)"></path>
                            </g>
                        </g>
                        <path d="M62.8704502,43.6238192 C62.7298437,43.8491358 62.4995888,43.9804073 62.2598968,44 L49.6138017,44 C49.4816882,43.9902036 49.3533495,43.9470996 49.2353908,43.8677489 C48.9994736,43.708068 48.8711348,43.440627 48.8711348,43.1692674 L48.8711348,38.754041 C48.7371342,39.0195228 48.5889782,39.2801064 48.4285545,39.5357918 C46.8356429,42.0818697 44.2952886,43.6052061 41.6011164,43.932405 C41.2359168,43.9774684 40.86883,44 40.4989121,44 L37.7556691,44 C36.4920977,43.9764887 35.2181458,43.597369 34.0810259,42.8293332 C32.102154,41.4960465 30.9914567,39.2957806 30.9103013,37.0210622 L30.9103013,20.6993212 C30.933893,20.4867399 30.9329493,20.2731789 30.9103013,20.0625568 C30.8215965,19.2700301 30.4073262,18.521587 29.7118429,18.0523406 C29.4259114,17.859352 29.1163883,17.7310195 28.8012032,17.6624449 C28.8012032,17.6624449 28.8002596,17.6614653 28.7993159,17.6624449 C28.7172168,17.6438318 28.6351177,17.6301169 28.5511312,17.6203205 C28.4860181,17.5987685 28.4227924,17.5674201 28.3642849,17.5272549 C27.9934234,17.2774473 27.8886763,16.7631376 28.1293116,16.3781401 C28.2821858,16.1332307 28.5388635,16 28.8002596,16 L40.1233322,16 C40.9396051,16 41.6011164,16.6867259 41.6011164,17.535092 L41.6011164,35.0980337 C41.5897923,35.2048142 41.5841303,35.3115947 41.5812994,35.4193549 L41.5812994,35.5427892 C41.5831867,35.6574068 41.5897923,35.7700651 41.6011164,35.883703 C41.7124692,36.9799174 42.2833884,38.0153943 43.2412114,38.6619551 C43.6224533,38.9186201 44.0320052,39.092016 44.4519375,39.1860611 C44.4538248,39.1860611 44.4547685,39.1870408 44.4575995,39.1870408 C45.8938623,39.5103212 47.4367595,38.9049052 48.2851169,37.5510461 C48.6550348,36.9603247 48.8456558,36.3029879 48.8711348,35.6466308 C48.8758531,35.5457281 48.8758531,35.4467847 48.8711348,35.3478413 L48.8711348,20.5553145 C48.8786843,20.4357988 48.8786843,20.316283 48.8711348,20.1967672 C48.8154585,19.3542789 48.3936389,18.5480372 47.6604088,18.0523406 C47.3744774,17.859352 47.065898,17.7310195 46.7507128,17.6624449 C46.7507128,17.6624449 46.7497691,17.6614653 46.7478818,17.6624449 C46.6657827,17.6438318 46.5836836,17.6301169 46.4996971,17.6203205 L46.4987535,17.6203205 C46.4326967,17.5977888 46.372302,17.5664404 46.3128509,17.5272549 C45.9419893,17.2774473 45.8372422,16.7631376 46.0778775,16.3781401 C46.2298081,16.1332307 46.4883731,16 46.7497691,16 L59.1646655,16 C59.5827108,16 59.9205437,16.3516899 59.9205437,16.7846897 L59.9205437,39.59457 C59.9205437,40.502694 60.3489692,41.3912253 61.1369318,41.9231684 C61.4662722,42.1455461 61.8248659,42.2826954 62.1900655,42.3395144 C62.256122,42.35127 62.3231226,42.3591071 62.3891796,42.3640053 C62.4750533,42.3845777 62.5580958,42.4218039 62.635477,42.4737247 C63.007282,42.7245119 63.1110853,43.2388216 62.8704502,43.6238192" id="Fill-8" fill="#ffffff" fill-rule="nonzero"></path>
                        <path d="M82.8635666,43.6421691 C82.7271636,43.8439248 82.5111096,43.967643 82.2791251,44 L65.7216196,44 C65.4906307,43.967643 65.2735811,43.8439248 65.1361824,43.6421691 C64.882294,43.2681597 64.993806,42.7685288 65.384097,42.525851 C65.447818,42.4868322 65.514526,42.4563785 65.584221,42.4344899 C65.6698459,42.4259248 65.7554709,42.413553 65.8401007,42.3954711 L65.8440834,42.3954711 C66.1776228,42.3288536 66.5022019,42.2032322 66.8058722,42.0157516 C67.6382277,41.4989906 68.0902488,40.6358187 68.0902488,39.7526617 L68.0902488,24.6362103 C68.0902488,23.7540048 67.6382277,22.8898814 66.8058722,22.3731203 C66.5041932,22.1856397 66.1786185,22.0609699 65.8460747,21.9943525 C65.8460747,21.9943525 65.845079,21.9934008 65.8440834,21.9943525 C65.7564666,21.9762706 65.6698459,21.9629471 65.5822296,21.9534303 C65.5135303,21.9324934 65.4468223,21.9029914 65.384097,21.8630209 C64.993806,21.6203431 64.882294,21.1207122 65.1361824,20.7467028 C65.2148383,20.6315498 65.3203759,20.5411404 65.4388576,20.480233 L65.7076804,20.3907752 L65.7096717,20.3907752 L68.0902488,19.602786 L78.6231323,16.119645 L78.6241279,16.1186932 L78.9696153,16.0054436 C79.1577914,15.9845067 79.3559241,16.0235255 79.5261784,16.1301134 C79.7740929,16.2833335 79.9104959,16.5431416 79.9104959,16.8067564 L79.9104959,39.7536133 C79.9104959,40.6358187 80.362517,41.4989906 81.1938768,42.0157516 C81.4975471,42.2032322 81.8221262,42.3288536 82.1556657,42.3954711 L82.1596483,42.3954711 C82.2442776,42.413553 82.3299031,42.4259248 82.4165237,42.4344899 C82.485223,42.4563785 82.5529267,42.4868322 82.615652,42.525851 C83.0069386,42.7685288 83.117455,43.2681597 82.8635666,43.6421691" id="Fill-10" fill="#ffffff" fill-rule="nonzero"></path>
                        <path d="M80,6 C80,9.31370955 77.3129525,12 74.000488,12 C70.686072,12 68,9.31370955 68,6 C68,2.68629045 70.686072,0 74.000488,0 C77.3129525,0 80,2.68629045 80,6" id="Fill-12" fill="#ffffff" fill-rule="nonzero"></path>
                        <path d="M103.672034,35.3430142 C103.672034,36.6405109 103.304879,37.9205395 102.569608,38.9841569 C101.92949,39.9089993 101.190375,40.4369262 100.403202,40.4369262 C97.9657558,40.4369262 95.9906165,35.3798914 95.9906165,29.1398734 C95.9906165,22.9008259 97.0180734,17.8428207 100.403202,17.8428207 C100.657904,17.8428207 100.9078,17.8981366 101.150007,18.0058569 C101.49025,18.1533659 101.816075,18.4008316 102.126523,18.7366087 C102.274539,18.897704 102.417748,19.0791788 102.558074,19.2790923 C103.299112,20.3446506 103.672034,21.628561 103.672034,22.93091 L103.672034,35.3430142 Z M102.987703,41.681048 C103.104001,41.5675049 103.277006,41.5354799 103.425021,41.5985594 C103.573998,41.6626094 103.672034,41.8110888 103.672034,41.974125 L103.672034,45 L117.374982,45 C117.571054,44.9514773 117.748865,44.8311411 117.869007,44.6477253 C118.113137,44.2663369 118.00645,43.7568487 117.628723,43.5084125 C117.608539,43.4948262 117.588355,43.4822102 117.56721,43.4705648 C117.477824,43.4230126 117.377866,43.4016626 117.276946,43.3900171 C117.243307,43.3861353 117.209666,43.381283 117.175065,43.3754603 C116.803105,43.319174 116.437873,43.1833105 116.102435,42.9630174 C115.300846,42.4360611 114.864489,41.5558594 114.864489,40.6572192 L114.864489,0.888992698 C114.864489,0.28537043 114.281078,-0.141629245 113.713045,0.0437274321 L103.672034,3.32192039 L100.773241,4.26908331 L100.412814,4.38747867 L100.411853,4.38747867 C100.309972,4.44958771 100.220586,4.53498765 100.151384,4.64270802 C99.9062936,5.02312589 100.012019,5.53261416 100.390707,5.78105036 C100.502199,5.85480481 100.626186,5.89653435 100.750173,5.90915023 C100.82322,5.90429799 100.898189,5.90138659 100.974118,5.90138659 C101.475833,5.90623887 101.981391,6.04986602 102.433126,6.34585446 C103.235677,6.87281088 103.672034,7.75301247 103.672034,8.65262314 L103.672034,16.8568396 C103.672034,17.3042189 103.200115,17.5866209 102.809893,17.3760324 C101.208636,16.5162104 99.4247634,16.0358357 97.5457381,16.0358357 C97.2843087,16.0358357 97.0267233,16.0445698 96.7691384,16.0630084 C96.6278509,16.0862993 96.4856024,16.1125016 96.3471985,16.1387038 C93.0149323,16.7927896 90.093072,18.6046269 88.0074016,21.1413932 C86.1331821,23.6859231 85,26.9893478 85,30.6004064 C85,31.8843168 85.019223,34.5588875 86.486881,37.4799535 C86.7406214,37.9855599 90.3362398,44.8893682 96.4087115,44.7447706 C97.5072926,44.717598 98.481887,44.4662504 99.2978935,44.1421188 C100.192713,43.7869327 101.022176,43.2813263 101.769941,42.6718813 L102.987703,41.681048 Z" id="Fill-14" fill="#ffffff" fill-rule="nonzero"></path>
                        <path d="M134.982114,26.30016 C134.901157,26.70048 134.553792,27 134.136767,27 L128,27 C128.326654,21.80448 129.45347,18 131.516944,18 C133.388381,18 134.508607,21.22368 134.936928,25.78944 C134.977407,25.8912 135,26.00352 135,26.11968 C135,26.18112 134.99341,26.24256 134.982114,26.30016 L134.982114,26.30016 Z M145.126182,27.8100949 C145.559697,27.8100949 145.919504,27.5143761 146,27.1207063 C145.991271,26.9695819 145.979634,26.8175246 145.965086,26.667333 C145.956358,26.5581876 145.94375,26.4509079 145.929202,26.3426953 C145.265838,21.0122939 140.834678,16.7957355 135.272696,16.2248209 C135.195109,16.2117608 135.104915,16.1977678 135.005992,16.1856405 C134.140903,16.0783608 132.554259,16 131.847252,16 C131.077205,16 130.322677,16.0634349 129.587545,16.1856405 C124.20983,17.0783941 119.876623,21.1018491 118.479097,26.3426953 C118.349139,26.8221889 118.245367,27.311944 118.167781,27.8100949 C118.05722,28.5237381 118,29.2551058 118,29.9995336 C118,37.7320673 124.200132,44 131.847252,44 C138.52842,44 144.106889,39.2134599 145.408403,32.8466433 C145.42295,32.7776112 145.436528,32.7085791 145.449136,32.6376812 L145.449136,32.6292854 C145.454955,32.3876728 145.340515,32.1731135 145.159156,32.035982 C145.030169,31.9370981 144.865298,31.8773946 144.686849,31.8773946 C144.400748,31.8773946 144.151501,32.0266533 144.022514,32.2505414 C144.016695,32.2580043 144.011846,32.267333 144.007967,32.2757288 C142.996433,34.1050808 141.503862,35.5109112 139.699006,36.2441446 C138.024107,36.9232717 136.332721,36.9689822 134.90125,36.7217724 C133.81213,36.5342662 132.873333,36.1769782 132.208999,35.8028985 C129.880434,34.4931534 128.392712,31.5611528 128.144435,27.8100949 L145.126182,27.8100949 Z" id="Fill-16" fill="#ffffff" fill-rule="nonzero"></path>
                    </g>
                </g>
            </g>
        </g>
    </g>
</svg>
